<?xml version="1.0"?>
<svg xmlns="http://www.w3.org/2000/svg" viewBox="0 0 80 80">
    <path style="line-height:normal;text-indent:0;text-align:start;text-decoration-line:none;text-decoration-style:solid;text-decoration-color:#000;text-transform:none;block-progression:tb;isolation:auto;mix-blend-mode:normal" d="M 40 5.9433594 L 7 17.287109 L 7 25.359375 L 8.2988281 24.955078 L 9 24.736328 L 9 71 L 18 71 L 18 41 L 62 41 L 62 70 L 71 70 L 71 24.734375 L 73 25.359375 L 73 17.287109 L 40 5.9433594 z M 40 8.0566406 L 71 18.712891 L 71 22.117188 L 69.330078 22.117188 L 40 12.953125 L 9 22.638672 L 9 18.712891 L 40 8.0566406 z M 40 15.046875 L 69 24.109375 L 69 68 L 64 68 L 64 40.167969 A 1.0001 1.0001 0 0 0 64 39.841797 L 64 29 L 62 29 A 1 1 0 0 0 61 30 A 1 1 0 0 0 62 31 L 62 39 L 18 39 L 18 31 A 1 1 0 0 0 19 30 A 1 1 0 0 0 18 29 L 16 29 L 16 39.832031 A 1.0001 1.0001 0 0 0 16 40.158203 L 16 69 L 11 69 L 11 24.111328 L 40 15.046875 z M 22 29 A 1 1 0 0 0 21 30 A 1 1 0 0 0 22 31 A 1 1 0 0 0 23 30 A 1 1 0 0 0 22 29 z M 26 29 A 1 1 0 0 0 25 30 A 1 1 0 0 0 26 31 A 1 1 0 0 0 27 30 A 1 1 0 0 0 26 29 z M 30 29 A 1 1 0 0 0 29 30 A 1 1 0 0 0 30 31 A 1 1 0 0 0 31 30 A 1 1 0 0 0 30 29 z M 34 29 A 1 1 0 0 0 33 30 A 1 1 0 0 0 34 31 A 1 1 0 0 0 35 30 A 1 1 0 0 0 34 29 z M 38 29 A 1 1 0 0 0 37 30 A 1 1 0 0 0 38 31 A 1 1 0 0 0 39 30 A 1 1 0 0 0 38 29 z M 42 29 A 1 1 0 0 0 41 30 A 1 1 0 0 0 42 31 A 1 1 0 0 0 43 30 A 1 1 0 0 0 42 29 z M 46 29 A 1 1 0 0 0 45 30 A 1 1 0 0 0 46 31 A 1 1 0 0 0 47 30 A 1 1 0 0 0 46 29 z M 50 29 A 1 1 0 0 0 49 30 A 1 1 0 0 0 50 31 A 1 1 0 0 0 51 30 A 1 1 0 0 0 50 29 z M 54 29 A 1 1 0 0 0 53 30 A 1 1 0 0 0 54 31 A 1 1 0 0 0 55 30 A 1 1 0 0 0 54 29 z M 58 29 A 1 1 0 0 0 57 30 A 1 1 0 0 0 58 31 A 1 1 0 0 0 59 30 A 1 1 0 0 0 58 29 z M 36 35 A 1.0001 1.0001 0 1 0 36 37 L 44 37 A 1.0001 1.0001 0 1 0 44 35 L 36 35 z"/>
</svg>
