<?xml version="1.0"?>
<svg xmlns="http://www.w3.org/2000/svg" viewBox="0 0 80 80">
    <path style="line-height:normal;text-indent:0;text-align:start;text-decoration-line:none;text-decoration-style:solid;text-decoration-color:#000;text-transform:none;block-progression:tb;isolation:auto;mix-blend-mode:normal" d="M 40 5.9433594 L 7 17.287109 L 7 25.359375 L 8.2988281 24.955078 L 9 24.736328 L 9 71 L 16.832031 71 A 1.0001 1.0001 0 0 0 17.158203 71 L 62.832031 71 A 1.0001 1.0001 0 0 0 63.158203 71 L 71 71 L 71 24.734375 L 73 25.359375 L 73 17.287109 L 40 5.9433594 z M 40 8.0566406 L 71 18.712891 L 71 22.638672 L 40 12.953125 L 9 22.638672 L 9 18.712891 L 40 8.0566406 z M 40 15.046875 L 69 24.109375 L 69 69 L 64 69 L 64 29 L 16 29 L 16 69 L 11 69 L 11 24.111328 L 40 15.046875 z M 18 31 L 62 31 L 62 39 A 1 1 0 0 0 61 40 A 1 1 0 0 0 62 41 L 62 49 A 1 1 0 0 0 61 50 A 1 1 0 0 0 62 51 L 62 59 A 1 1 0 0 0 61 60 A 1 1 0 0 0 62 61 L 62 69 L 18 69 L 18 61 A 1 1 0 0 0 19 60 A 1 1 0 0 0 18 59 L 18 51 A 1 1 0 0 0 19 50 A 1 1 0 0 0 18 49 L 18 41 A 1 1 0 0 0 19 40 A 1 1 0 0 0 18 39 L 18 31 z M 22 39 A 1 1 0 0 0 21 40 A 1 1 0 0 0 22 41 A 1 1 0 0 0 23 40 A 1 1 0 0 0 22 39 z M 26 39 A 1 1 0 0 0 25 40 A 1 1 0 0 0 26 41 A 1 1 0 0 0 27 40 A 1 1 0 0 0 26 39 z M 30 39 A 1 1 0 0 0 29 40 A 1 1 0 0 0 30 41 A 1 1 0 0 0 31 40 A 1 1 0 0 0 30 39 z M 34 39 A 1 1 0 0 0 33 40 A 1 1 0 0 0 34 41 A 1 1 0 0 0 35 40 A 1 1 0 0 0 34 39 z M 38 39 A 1 1 0 0 0 37 40 A 1 1 0 0 0 38 41 A 1 1 0 0 0 39 40 A 1 1 0 0 0 38 39 z M 42 39 A 1 1 0 0 0 41 40 A 1 1 0 0 0 42 41 A 1 1 0 0 0 43 40 A 1 1 0 0 0 42 39 z M 46 39 A 1 1 0 0 0 45 40 A 1 1 0 0 0 46 41 A 1 1 0 0 0 47 40 A 1 1 0 0 0 46 39 z M 50 39 A 1 1 0 0 0 49 40 A 1 1 0 0 0 50 41 A 1 1 0 0 0 51 40 A 1 1 0 0 0 50 39 z M 54 39 A 1 1 0 0 0 53 40 A 1 1 0 0 0 54 41 A 1 1 0 0 0 55 40 A 1 1 0 0 0 54 39 z M 58 39 A 1 1 0 0 0 57 40 A 1 1 0 0 0 58 41 A 1 1 0 0 0 59 40 A 1 1 0 0 0 58 39 z M 22 49 A 1 1 0 0 0 21 50 A 1 1 0 0 0 22 51 A 1 1 0 0 0 23 50 A 1 1 0 0 0 22 49 z M 26 49 A 1 1 0 0 0 25 50 A 1 1 0 0 0 26 51 A 1 1 0 0 0 27 50 A 1 1 0 0 0 26 49 z M 30 49 A 1 1 0 0 0 29 50 A 1 1 0 0 0 30 51 A 1 1 0 0 0 31 50 A 1 1 0 0 0 30 49 z M 34 49 A 1 1 0 0 0 33 50 A 1 1 0 0 0 34 51 A 1 1 0 0 0 35 50 A 1 1 0 0 0 34 49 z M 38 49 A 1 1 0 0 0 37 50 A 1 1 0 0 0 38 51 A 1 1 0 0 0 39 50 A 1 1 0 0 0 38 49 z M 42 49 A 1 1 0 0 0 41 50 A 1 1 0 0 0 42 51 A 1 1 0 0 0 43 50 A 1 1 0 0 0 42 49 z M 46 49 A 1 1 0 0 0 45 50 A 1 1 0 0 0 46 51 A 1 1 0 0 0 47 50 A 1 1 0 0 0 46 49 z M 50 49 A 1 1 0 0 0 49 50 A 1 1 0 0 0 50 51 A 1 1 0 0 0 51 50 A 1 1 0 0 0 50 49 z M 54 49 A 1 1 0 0 0 53 50 A 1 1 0 0 0 54 51 A 1 1 0 0 0 55 50 A 1 1 0 0 0 54 49 z M 58 49 A 1 1 0 0 0 57 50 A 1 1 0 0 0 58 51 A 1 1 0 0 0 59 50 A 1 1 0 0 0 58 49 z M 22 59 A 1 1 0 0 0 21 60 A 1 1 0 0 0 22 61 A 1 1 0 0 0 23 60 A 1 1 0 0 0 22 59 z M 26 59 A 1 1 0 0 0 25 60 A 1 1 0 0 0 26 61 A 1 1 0 0 0 27 60 A 1 1 0 0 0 26 59 z M 30 59 A 1 1 0 0 0 29 60 A 1 1 0 0 0 30 61 A 1 1 0 0 0 31 60 A 1 1 0 0 0 30 59 z M 34 59 A 1 1 0 0 0 33 60 A 1 1 0 0 0 34 61 A 1 1 0 0 0 35 60 A 1 1 0 0 0 34 59 z M 38 59 A 1 1 0 0 0 37 60 A 1 1 0 0 0 38 61 A 1 1 0 0 0 39 60 A 1 1 0 0 0 38 59 z M 42 59 A 1 1 0 0 0 41 60 A 1 1 0 0 0 42 61 A 1 1 0 0 0 43 60 A 1 1 0 0 0 42 59 z M 46 59 A 1 1 0 0 0 45 60 A 1 1 0 0 0 46 61 A 1 1 0 0 0 47 60 A 1 1 0 0 0 46 59 z M 50 59 A 1 1 0 0 0 49 60 A 1 1 0 0 0 50 61 A 1 1 0 0 0 51 60 A 1 1 0 0 0 50 59 z M 54 59 A 1 1 0 0 0 53 60 A 1 1 0 0 0 54 61 A 1 1 0 0 0 55 60 A 1 1 0 0 0 54 59 z M 58 59 A 1 1 0 0 0 57 60 A 1 1 0 0 0 58 61 A 1 1 0 0 0 59 60 A 1 1 0 0 0 58 59 z M 36 65 A 1.0001 1.0001 0 1 0 36 67 L 44 67 A 1.0001 1.0001 0 1 0 44 65 L 36 65 z"/>
</svg>
